<svg id="svg8" height="512" viewBox="0 0 33.866666 33.866668" width="512" xmlns="http://www.w3.org/2000/svg" xmlns:xlink="http://www.w3.org/1999/xlink" xmlns:svg="http://www.w3.org/2000/svg"><linearGradient id="linearGradient3363" gradientUnits="userSpaceOnUse" x1="-180.440378" x2="-180.440378" y1="97.375304" y2="99.607314"><stop id="stop2198" offset="0" stop-color="#f6f600"/><stop id="stop2200" offset="1" stop-color="#f69134"/></linearGradient><linearGradient id="linearGradient6524" gradientTransform="matrix(-.067 -.801 .801 -.067 19.526 20.059)" gradientUnits="userSpaceOnUse" x1="16.929" x2="8.362" xlink:href="#linearGradient2223" y1="10.059" y2="2.938"/><linearGradient id="linearGradient2223"><stop id="stop2219" offset="0" stop-color="#0dbd4f"/><stop id="stop2221" offset="1" stop-color="#7ce678"/></linearGradient><linearGradient id="linearGradient3036" gradientUnits="userSpaceOnUse" x1="21.57756" x2="13.956162" y1="27.96167" y2="14.978648"><stop id="stop940" offset="0" stop-color="#d90947"/><stop id="stop942" offset="1" stop-color="#ff585b"/></linearGradient><linearGradient id="linearGradient2732" gradientTransform="matrix(.312 .665 -.665 .312 485.02 -52.682)" gradientUnits="userSpaceOnUse" x1="-191.091" x2="-197.862" y1="602.449" y2="592.253"><stop id="stop8663-3" offset="0" stop-color="#ab305b"/><stop id="stop8665-9" offset="1" stop-color="#cb5f3f"/></linearGradient><linearGradient id="linearGradient3176" gradientTransform="matrix(.565 -.571 .571 .565 10.69 10.696)" gradientUnits="userSpaceOnUse" x1="14.091" x2="8.362" xlink:href="#linearGradient2223" y1="9.064" y2="2.938"/><linearGradient id="linearGradient3180" gradientTransform="matrix(.139 -.792 -.792 -.139 31.606 21.548)" gradientUnits="userSpaceOnUse" x1="14.012" x2="8.362" xlink:href="#linearGradient2223" y1="9.249" y2="2.938"/><g id="layer1"><path id="path3028" d="m25.441396 9.1341881c-3.307692-1.6116381-8.643322-3.3517295-10.428986 3.9697419-1.546844 6.342276-6.0764582 15.849745-10.3656923 14.700449-1.6781035-.449648-2.0785181 1.413022-1.3676826 2.433367.8360659 1.200102 4.5129607 3.176422 9.0659319 2.391428 7.804921-1.345673 12.423592-6.404906 16.32605-13.066001 3.90246-6.661093.07807-8.817347-3.229621-10.4289849z" fill="url(#linearGradient3036)" paint-order="markers fill stroke"/><path id="path3174" d="m20.235756 5.2789877c2.397755-.6565446 4.915563.9076806 5.076226 1.4944286.159732.5833544-1.209059 3.2154402-3.606815 3.8719867-2.397756.656543-4.67046-.01254-5.076227-1.4944301-.405766-1.4818931 1.209059-3.2154397 3.606816-3.8719852z" fill="url(#linearGradient3176)" stroke-linecap="round" stroke-linejoin="round" stroke-width="1.063" paint-order="markers fill stroke"/><path id="path3178" d="m30.501996 10.628572c-.851573-2.3356168-3.584039-3.4844407-4.155582-3.2760548-.568235.2071812-1.923333 2.8463438-1.071759 5.1819608.851573 2.335616 2.712091 3.802354 4.155581 3.276056 1.44349-.526301 1.923332-2.846344 1.07176-5.181962z" fill="url(#linearGradient3180)" stroke-linecap="round" stroke-linejoin="round" stroke-width="1.063" paint-order="markers fill stroke"/><path id="path2730" d="m27.899267 1.1473954c.757374.2732842 1.208708 1.1328434.876413 1.866234l-2.031924 4.4848476c-.678262 1.4971641-2.443622.8528425-2.011294-.7258895l1.300548-4.7487748c.21232-.7766692 1.108873-1.14978783 1.866246-.8764198z" fill="url(#linearGradient2732)" font-variant-ligatures="normal" font-variant-position="normal" font-variant-caps="normal" font-variant-numeric="normal" font-variant-alternates="normal" font-variant-east-asian="normal" font-feature-settings="normal" font-variation-settings="normal" text-indent="0" text-align="start" text-decoration-line="none" text-decoration-style="solid" text-decoration-color="#000000" text-transform="none" text-orientation="mixed" white-space="normal" shape-padding="0" shape-margin="0" inline-size="0" isolation="auto" mix-blend-mode="normal" solid-color="#000000" solid-opacity="1" vector-effect="none" paint-order="markers fill stroke"/><path id="path6515" d="m21.610337 9.2827756c1.05877-2.2492856 3.883721-3.1469631 4.434137-2.8878742.547233.2575904 1.658758 3.0082237.599988 5.2575076-1.058773 2.249286-3.044001 3.542232-4.434138 2.887874-1.390135-.654355-1.658756-3.008222-.599987-5.2575074z" fill="url(#linearGradient6524)" stroke-linecap="round" stroke-linejoin="round" stroke-width="1.063" paint-order="markers fill stroke"/><path id="path3186" d="m27.030575 16.678462-.201172.490235.246094.09961.199219-.490235zm-.513672 1.212891-.21875.482422.240235.109375.21875-.480469zm-.5625 1.193359-.238281.470703.236328.121094.238282-.474609zm-.609375 1.166016-.259765.458984.228515.132813.261719-.462891zm-.666015 1.136719-.28125.445312.224609.142578.283203-.449219zm-.716797 1.101562-.304688.431641.214844.154297.306641-.433594zm-.779297 1.060547-.328125.412109.203125.167969.333984-.416016zm-.839844 1.011719-.353515.390625.193359.179687.357422-.394531zm-.904297.955078-.378906.363281.181641.191406.384765-.367187zm-.964843.884765-.408203.335938.166015.205078.410156-.337891zm-1.035157.808594-.43164.302735.15039.21875.435547-.304688zm-1.089843.728516-.455079.267578.132813.228515.457031-.267578zm-1.148438.638672-.472656.230468.113281.238282.478516-.232422zm-1.193359.544921-.490235.191407.09375.248047.496094-.19336zm-1.232422.449219-.503906.152344.07422.255859.509766-.154296zm-1.265625.351563-.513672.115234.05664.257813.517578-.115235zm-7.0371093.214844-.046875.261718.5253906.08594.041016-.261719zm5.7519533.03906-.521485.07422.0332.261719.525391-.07422zm-4.4531252.140625-.025391.261719.53125.04297.019531-.263671zm3.1484372.01758-.52539.03516.01563.263672.529296-.03516zm-1.8398434.05859-.00195.263672.53125.002v-.263715z" fill="#8c092f" font-variant-ligatures="normal" font-variant-position="normal" font-variant-caps="normal" font-variant-numeric="normal" font-variant-alternates="normal" font-variant-east-asian="normal" font-feature-settings="normal" font-variation-settings="normal" text-indent="0" text-align="start" text-decoration-line="none" text-decoration-style="solid" text-decoration-color="#000000" text-transform="none" text-orientation="mixed" white-space="normal" shape-padding="0" shape-margin="0" inline-size="0" isolation="auto" mix-blend-mode="normal" solid-color="#000000" solid-opacity="1" vector-effect="none" paint-order="markers fill stroke"/></g></svg>