<svg enable-background="new 0 0 128 128" viewBox="0 0 128 128" xmlns="http://www.w3.org/2000/svg"><g id="Icon" display="none"><g display="inline"><g><g><path d="m103.771 95.242c-3.252 8.264-8.467 15.853-15.84 20.944-5.095 3.518-10.937 5.766-17.036 6.771-2.871.473-6.114.641-9.209.446-3.461-.217-6.855-.404-10.26-1.132-3.984-.852-7.848-2.213-11.405-4.21-8.75-4.914-15.086-13.578-17.381-23.085-.28-1.159-.384-2.254-.488-3.453-.448-5.165-.433-10.377.146-15.531.926-8.257 3.425-16.357 7.454-23.629 2.874-5.188 6.486-9.942 10.742-14.073 1.422-1.381 2.914-2.69 4.477-3.91.301-.235-.252.191.043-.033.056-.042.111-.085.167-.127.133-.1.265-.2.399-.298.256-.189.514-.376.774-.559.34-.239.707-.45 1.038-.701.114-.086.247-.158.37-.231-.684-.684-1.368-1.368-2.052-2.052-6.583 12.901-6.544 28.601-4.364 42.615.188 1.207.386 2.417.65 3.61.366 1.656 2.983 1.285 2.946-.399-.305-14.017 5.644-27.094 15.369-37.014 1.455-1.484 2.985-2.898 4.589-4.221 1.036-.855 1.426-1.169 2.597-1.919 1.712-1.097 3.422-2.12 5.015-3.394 5.147-4.117 8.808-9.786 11.287-15.835 1.411-3.444 2.529-7.115 2.988-10.822-.932.252-1.863.505-2.795.757 7.083 9.37 11.069 20.737 11.323 32.488.133 6.171-.771 12.216-2.353 18.169-1.39 5.231-2.357 10.571-2.921 15.954-.268 2.553-.49 5.141-.459 7.711.02 1.657 2.543 2.081 2.946.399 1.508-6.294 4.766-11.959 9.351-16.515 1.954-1.941 4.098-3.791 6.53-5.112-.684-.684-1.368-1.368-2.052-2.052-2.42 4.748-2.174 10.687-1.206 15.801 1.266 6.694 1.304 13.353-.134 20.03-.335 1.55-.711 3.115-1.246 4.612-.651 1.821 2.246 2.605 2.893.798 1.438-4.021 2.095-8.439 2.382-12.677.272-4.03.064-8.093-.696-12.062-.326-1.702-.629-3.37-.751-5.106-.23-3.279-.176-6.892 1.349-9.883.677-1.329-.697-2.788-2.052-2.052-2.703 1.468-5.166 3.595-7.319 5.762-4.842 4.875-8.338 10.966-9.941 17.657l2.946.399c-.09-7.497 1.26-15.173 3.148-22.393 3.11-11.893 3.623-24.156-.13-35.986-1.994-6.287-5.04-12.195-9.017-17.456-.93-1.229-2.607-.764-2.796.757.071-.572-.002 0-.058.332-.109.648-.239 1.293-.382 1.934-.471 2.114-1.092 4.195-1.844 6.226-2.203 5.951-5.691 11.521-10.588 15.616-2.48 2.073-5.398 3.507-7.905 5.552-1.572 1.282-3.072 2.653-4.503 4.091-4.155 4.176-7.772 8.952-10.531 14.162-4.127 7.791-6.226 16.475-6.034 25.294l2.946-.399c-.699-3.159-1.089-6.405-1.378-9.623-.639-7.126-.625-14.414.649-21.471.8-4.436 2.087-8.796 4.141-12.82.66-1.294-.704-2.849-2.052-2.052-2.036 1.203-3.911 2.756-5.684 4.307-4.284 3.746-8.017 8.138-11.119 12.904-4.411 6.776-7.49 14.419-9.113 22.335-1.022 4.984-1.505 10.082-1.492 15.168.008 3.345.061 6.848.675 10.146 1.718 9.233 7.624 17.887 15.082 23.417 7.007 5.195 15.642 7.612 24.262 8.155 3.149.198 6.299.328 9.447.021 6.024-.586 11.919-2.28 17.26-5.148 7.607-4.085 13.695-10.519 17.837-18.056 1.249-2.273 2.314-4.639 3.263-7.052.705-1.796-2.195-2.576-2.895-.797z"/></g></g><g><g><path d="m71.197 122.904c-4.796.872-9.862.681-14.696.173-1.443-.152-3.008-.18-4.217-1.027-1.218-.853-2.379-1.781-3.481-2.78-1.857-1.685-3.554-3.554-4.995-5.607-4.347-6.194-6.46-13.708-6.452-21.243.001-1.148.049-2.297.159-3.44.017-.176.037-.351.056-.526.041-.397-.029-.291.011-.113-.02-.087.035-.239.05-.329-.964 0-1.929 0-2.893 0 2.531 6.476 7.169 11.852 12.501 16.22 2.744 2.248 5.69 4.401 8.84 6.056 1.11.583 2.605-.388 2.203-1.694-3.639-11.828-4.607-24.97 1.013-36.358 3.235-6.555 8.396-12.131 14.343-15.929 1.222-.78 2.493-1.547 3.829-2.12-.734-.565-1.469-1.129-2.203-1.694-1.033 3.495-1.616 7.162-2.018 10.776-.761 6.845-.624 14.161 1.853 20.669 1.209 3.177 3.245 5.897 4.591 9.012 1.676 3.878 2.8 8.619 2.549 13.068-.424 7.506-5.115 13.297-11.402 17.037-1.658.986-.151 3.581 1.514 2.59 5.954-3.542 10.853-8.835 12.365-15.752 1.11-5.078.461-10.405-1.2-15.29-.854-2.514-1.924-5.024-3.376-7.256-3.935-6.049-4.593-13.659-4.183-20.692.262-4.479.924-9.051 2.199-13.364.408-1.382-1.08-2.176-2.203-1.694-3.983 1.708-7.658 4.601-10.749 7.578-7.19 6.926-11.558 16.119-12.648 26.024-.896 8.143.439 16.409 2.833 24.193.734-.565 1.469-1.129 2.203-1.694-2.84-1.492-5.526-3.391-8.012-5.407-4.986-4.044-9.583-9.02-11.95-15.076-.476-1.217-2.609-1.619-2.893 0-.847 4.839-.389 10.062.7 14.811 1.015 4.429 2.804 8.72 5.331 12.501 1.549 2.317 3.358 4.47 5.387 6.382.978.922 2.009 1.783 3.075 2.601.608.467 1.225.92 1.856 1.353.814.559 1.507.683 2.471.832 6.008.93 12.434 1.193 18.434.102 1.899-.345 1.095-3.237-.795-2.893z"/></g></g></g></g><g id="Glyph" display="none"><g display="inline"><g><path d="m106.161 95.981c0 .01-.01.02-.01.02-6.82 17.49-18.8 24.851-28.661 27.901 4.44-3.62 7.32-8.05 8.58-13.21 2.85-11.69-3.67-22.601-4.47-23.871-7.94-11.58-2.26-32.201-2.01-33.081.33-1.13-.01-2.31-.9-3.12-.55-.47-1.26-.73-1.98-.73-.41 0-.8.08-1.17.24-.33.14-31.211 13.8-23.521 52.131-4.53-3.42-10.42-8.89-13.03-15.71-.45-1.18-1.55-1.93-2.81-1.93h-.18l-.09.01c-1.33.12-2.44 1.13-2.68 2.48-.16.96-3.48 22.271 13.89 36.631-23.481-7.09-27.181-29.381-27.211-29.641-5.099-44.601 26.272-63.642 26.592-63.822.38-.23.87-.18 1.19.13s.41.79.2 1.19c-5.81 11.25-5.69 25.871-4.8 35.191 3.17-19.18 16.83-31.161 21.46-34.721.98-.76 2-1.39 2.96-1.96 14.34-8.5 16.76-27.041 16.78-27.231.05-.41.34-.74.74-.84.39-.11.8.03 1.05.35 4.46 5.85 7.73 12.48 9.71 19.71 2.81 10.26 2.71 21.49-.29 32.501-1.73 6.35-2.58 12.11-3.01 16.33 5.1-10.97 14.23-16.01 14.69-16.26.39-.2.86-.14 1.18.17.31.32.38.79.18 1.18-2.78 5.23-.92 14.21-.9 14.3 2.941 13.151-1.299 25.152-1.479 25.662z"/></g><g><path d="m84.13 110.221c-1.5 6.14-5.54 11.18-12.03 14.99-.1.06-.21.1-.33.12l-.32.06c-2.96.49-5.46.61-7.24.61-1.73 0-2.76-.12-2.84-.12-2.86-.06-5.72-.32-8.4-.78-.2-.03-.44-.07-.66-.11-.13-.03-.25-.08-.36-.15-20.69-13.62-16.79-37.161-16.75-37.401.08-.44.44-.78.89-.82.47-.04.87.22 1.03.64 3.76 9.81 13.67 16.86 18.05 19.59-11.17-40.53 20.82-54.74 21.15-54.88.35-.15.77-.08 1.06.17.29.26.4.66.29 1.04-.06.22-6.41 22.1 2.28 34.771.3.48 6.891 11.14 4.18 22.27z"/></g></g></g><g id="Line_color" display="none"><g style="display:inline;stroke:#3c3c59;stroke-width:2;stroke-linecap:round;stroke-linejoin:round;stroke-miterlimit:10"><path d="m105.218 95.641c-12.806 32.849-43.739 29.242-43.739 29.242-35.984-.744-40.583-30.933-40.583-30.933-5.073-44.438 26.108-62.813 26.108-62.813-9.492 18.375-3.562 45.069-3.562 45.069-.624-24.155 16.246-39.136 21.717-43.349.907-.698 1.875-1.301 2.86-1.885 14.932-8.854 17.268-27.972 17.268-27.972 4.89 6.412 7.824 13.118 9.536 19.365 2.865 10.457 2.562 21.509-.286 31.971-3.596 13.206-3.455 23.742-3.455 23.742 3.63-15.534 16.571-22.523 16.571-22.523-2.976 5.614-.992 14.97-.992 14.97 2.908 13.031-1.443 25.116-1.443 25.116z" fill="#e66648"/><path d="m71.595 124.351c-.108.02-.216.039-.325.059-5.756.945-9.79.472-9.79.472-2.991-.059-5.765-.325-8.343-.767-.216-.029-.433-.069-.639-.108-20.376-13.42-16.313-36.393-16.313-36.393 5.067 13.223 20.651 21.38 20.651 21.38-13.046-42.031 19.874-56.1 19.874-56.1s-6.651 22.403 2.411 35.626c.001-.002 14.435 22.932-7.526 35.831z" fill="#ec9e2b"/></g></g><g id="Flat"><g><g><path d="m105.893 96.16c-13.016 33.388-44.456 29.721-44.456 29.721-36.573-.756-41.248-31.44-41.248-31.44-5.156-45.166 26.536-63.843 26.536-63.843-9.647 18.676-3.621 45.808-3.621 45.808-.634-24.552 16.513-39.778 22.073-44.06.922-.71 1.906-1.322 2.906-1.915 15.178-9 17.553-28.431 17.553-28.431 4.97 6.517 7.953 13.333 9.692 19.683 2.912 10.629 2.604 21.862-.291 32.495-3.655 13.423-3.512 24.131-3.512 24.131 3.689-15.789 16.843-22.893 16.843-22.893-3.025 5.706-1.008 15.216-1.008 15.216 2.956 13.245-1.467 25.528-1.467 25.528z" fill="#e66648"/><path d="m71.72 125.34c-.11.02-.22.04-.33.06-5.85.96-9.95.48-9.95.48-3.04-.06-5.86-.33-8.48-.78-.22-.03-.44-.07-.65-.11-20.71-13.64-16.58-36.99-16.58-36.99 5.15 13.44 20.99 21.73 20.99 21.73-13.26-42.72 20.2-57.02 20.2-57.02s-6.76 22.77 2.45 36.21c0 0 14.67 23.31-7.65 36.42z" fill="#ec9e2b"/></g></g></g></svg>